<svg xmlns="http://www.w3.org/2000/svg" viewBox="0 0 145.75 75.08"><defs><style>.cls-1{fill:none;stroke:#f6d450;stroke-miterlimit:10;stroke-width:7px;}</style></defs><g id="레이어_2" data-name="레이어 2"><g id="레이어_1-2" data-name="레이어 1"><path class="cls-1" d="M66.88,22.6,27.05,17.79a27.55,27.55,0,0,0-11.28.87c-7,2.13-14.48,7.76-1.57,22.65C34.42,64.61,78,63.4,89.07,63.16s50.32-6.48,53-25.16S114.93,14.33,65.37,13C32.22,12.09,31,30.17,33.88,42.24a28.15,28.15,0,0,0,14.3,18.48c8.1,4.24,21.21,8,40.46,5C125.16,60.07,130.4,47,130.12,26.84s-1-28.14-55.43-20.46S.85,34.11,3.79,49.5,13.83,68.28,27,71.06s66.89-5.79,80.67-23.87S82.14,10.26,54.31,16.77,12.69,44.59,21.07,55.67s47.66,13.74,64-.23,18.53-19.34,9.63-24.11-31.71-8-38.41-4.17-10.6,25-2.68,28.4,18.48,3.49,26.76-5.3,17.35-17,.89-17.5S56.91,40,54.61,42.09s-4.48,11.4,10,7.44S77,33.35,67.15,32.44s-14.67,5.22-14.67,5.22"/></g></g></svg>